<?xml version="1.0" standalone="no"?>
<!DOCTYPE svg PUBLIC "-//W3C//DTD SVG 20010904//EN"
 "http://www.w3.org/TR/2001/REC-SVG-20010904/DTD/svg10.dtd">
<svg version="1.0" xmlns="http://www.w3.org/2000/svg"
 width="320.000000pt" height="132.000000pt" viewBox="0 0 1280.000000 528.000000"
 preserveAspectRatio="xMidYMid meet">
<metadata>
Created by potrace 1.11, written by Peter Selinger 2001-2013
</metadata>
<g transform="translate(0.000000,528.000000) scale(0.100000,-0.100000)"
fill="#fff" stroke="none">
<path d="M2816 4854 c-284 -44 -491 -144 -708 -343 l-66 -61 -4 129 c-3 145
-13 170 -79 203 -31 17 -89 18 -774 18 -685 0 -743 -1 -774 -18 -19 -9 -44
-30 -55 -45 -20 -28 -21 -41 -24 -515 -2 -457 -1 -489 16 -521 33 -61 66 -71
239 -71 l153 0 0 -1392 c0 -1306 1 -1395 18 -1427 9 -19 30 -44 45 -55 28 -21
40 -21 575 -24 506 -2 550 -1 581 15 65 33 76 60 79 191 2 64 5 123 7 130 3 9
30 -10 78 -53 186 -173 377 -269 647 -326 139 -29 382 -32 514 -6 179 36 314
90 457 182 l67 43 6 -49 c8 -58 55 -112 106 -123 18 -3 124 -6 237 -6 218 0
249 6 292 51 12 13 26 40 32 61 5 21 12 38 15 38 2 0 40 -20 83 -45 100 -59
200 -100 326 -133 86 -23 120 -27 245 -27 107 0 166 5 224 18 246 58 427 158
604 335 l93 93 77 -72 c191 -176 404 -279 727 -351 87 -19 129 -22 320 -22
200 0 231 2 345 27 152 32 280 74 424 138 l109 48 46 -33 c55 -40 166 -97 236
-121 284 -95 599 -83 892 34 65 26 244 115 294 147 49 31 59 30 59 -3 0 -45
20 -106 43 -132 43 -46 71 -51 309 -51 203 0 225 2 264 20 83 41 79 -3 82 830
3 771 -3 945 -38 1104 -11 50 -20 91 -20 93 0 2 36 3 79 3 l79 0 5 -567 c4
-609 5 -618 62 -836 46 -177 133 -327 258 -443 125 -117 271 -187 488 -236 92
-20 129 -23 324 -22 240 0 296 7 550 70 223 54 276 73 311 108 54 54 52 83
-12 316 -57 207 -62 221 -99 252 -47 41 -85 41 -206 2 -152 -49 -256 -64 -434
-65 -271 0 -357 44 -426 216 l-24 60 -3 572 -3 572 518 3 c495 3 520 4 558 23
70 35 79 68 83 295 3 121 0 214 -7 246 -13 59 -49 99 -102 114 -20 6 -240 10
-541 10 l-507 0 -3 283 c-3 312 -5 322 -70 369 -32 23 -37 23 -278 23 -218 0
-249 -2 -278 -18 -58 -32 -69 -73 -99 -380 l-26 -276 -36 -5 c-20 -3 -144 -8
-276 -11 -254 -7 -306 -14 -342 -47 -18 -17 -25 -18 -37 -9 -25 21 -179 73
-291 97 -216 48 -463 43 -715 -13 -223 -49 -370 -102 -580 -207 l-145 -73 -90
69 c-93 71 -246 153 -350 187 -146 47 -272 66 -450 66 -177 0 -288 -16 -454
-67 -156 -47 -356 -163 -504 -291 -57 -50 -59 -51 -73 -32 -37 51 -156 161
-222 206 -197 132 -441 198 -686 186 -189 -9 -325 -52 -588 -185 -5 -2 -8 247
-8 554 0 541 -1 559 -20 600 -36 74 -57 78 -340 82 -161 3 -263 0 -298 -8
l-52 -12 -50 42 c-249 209 -655 310 -1014 254z m450 -149 c110 -21 210 -56
310 -109 111 -59 181 -114 287 -225 l87 -92 0 75 0 76 250 0 250 0 -1 -512
c-1 -282 -4 -594 -8 -693 -3 -99 -5 -182 -4 -184 1 -2 27 19 58 47 110 100
285 200 445 252 272 89 621 43 847 -111 107 -73 226 -208 283 -318 l22 -44 26
34 c133 174 338 326 546 404 308 116 700 106 975 -26 229 -109 383 -262 486
-483 79 -169 115 -346 115 -568 0 -71 3 -128 8 -126 4 2 52 26 108 55 256 131
684 226 1221 269 l82 7 -6 51 c-9 82 -50 198 -92 262 -105 160 -229 221 -472
231 -236 10 -394 -30 -698 -178 -101 -50 -184 -89 -185 -87 -16 21 -176 319
-176 326 0 12 199 119 318 171 554 243 1145 235 1460 -19 l62 -50 0 79 0 79
68 6 c37 3 164 8 282 11 118 3 245 8 281 11 l66 6 27 286 c15 158 30 311 33
340 l6 52 203 0 204 0 0 -340 0 -340 580 0 580 0 0 -200 0 -200 -580 0 -580 0
0 -573 c0 -319 4 -610 10 -657 13 -114 53 -233 99 -300 73 -106 184 -160 373
-182 172 -20 458 17 627 81 28 10 51 16 51 13 0 -4 23 -86 50 -182 35 -124 45
-177 37 -182 -21 -13 -231 -68 -352 -93 -228 -46 -427 -56 -615 -30 -150 20
-212 38 -325 95 -221 110 -353 292 -416 575 -22 96 -23 123 -28 765 l-6 665
-259 3 c-205 2 -257 0 -253 -10 35 -80 72 -187 90 -257 20 -84 21 -111 24
-938 l4 -853 -200 0 c-200 0 -201 0 -205 23 -3 12 -13 83 -22 157 -9 74 -18
137 -20 139 -2 3 -23 -10 -47 -27 -81 -61 -253 -163 -357 -214 -210 -101 -350
-133 -570 -132 -121 1 -161 5 -241 27 -117 31 -231 84 -300 140 -110 89 -89
85 -178 38 -176 -92 -384 -162 -566 -192 -115 -19 -408 -17 -520 4 -341 62
-630 226 -805 457 -30 38 -56 70 -59 70 -4 0 -23 -26 -43 -58 -150 -232 -376
-394 -642 -462 -170 -43 -334 -36 -509 21 -149 49 -268 119 -435 255 -18 15
-35 24 -39 20 -3 -3 -16 -63 -27 -134 l-22 -127 -197 -3 -197 -2 0 191 0 191
-95 -99 c-227 -239 -473 -344 -810 -344 -494 0 -861 229 -1102 686 l-42 80 -1
-352 0 -353 -510 0 -510 0 0 1450 0 1450 -205 0 -205 0 0 445 0 445 715 0 715
0 0 -342 0 -343 33 61 c254 470 641 706 1132 689 66 -3 156 -11 201 -20z
m5996 -1895 c87 -27 156 -87 199 -176 18 -35 30 -66 28 -68 -2 -2 -85 -13
-184 -25 -356 -44 -710 -124 -907 -206 -15 -6 -18 -2 -18 28 0 31 -23 181 -36
233 -5 18 9 28 100 73 120 59 282 125 347 141 140 35 359 35 471 0z"/>
<path d="M2957 3835 c-184 -48 -277 -380 -277 -989 0 -755 114 -1157 327
-1156 144 1 244 150 293 435 59 346 50 1052 -16 1348 -63 278 -175 402 -327
362z m101 -171 c41 -49 87 -194 106 -331 50 -360 44 -954 -14 -1240 -30 -151
-98 -271 -148 -261 -26 5 -69 78 -96 163 -55 174 -79 430 -79 850 0 413 23
603 89 753 48 109 91 128 142 66z"/>
<path d="M7008 2990 c-158 -25 -311 -104 -429 -221 -65 -64 -85 -92 -127 -180
-47 -97 -82 -207 -82 -257 l0 -22 706 0 707 0 -6 88 c-20 307 -181 515 -448
576 -83 20 -247 28 -321 16z m272 -150 c115 -22 231 -101 287 -198 23 -38 63
-149 63 -173 0 -5 -222 -9 -540 -9 -297 0 -540 2 -540 4 0 2 9 24 20 49 66
149 220 275 394 322 61 16 242 19 316 5z"/>
<path d="M4945 2951 c-160 -44 -267 -103 -405 -226 l-90 -80 0 -583 0 -584 23
-19 c209 -181 481 -268 697 -225 292 60 491 301 545 663 17 112 19 345 5 448
-46 318 -182 521 -401 595 -93 32 -278 37 -374 11z m349 -152 c189 -73 296
-315 296 -671 0 -284 -64 -482 -200 -617 -116 -116 -238 -158 -408 -140 -92
10 -231 63 -319 123 l-73 49 0 517 0 517 49 46 c96 90 233 166 346 193 86 20
233 12 309 -17z"/>
<path d="M9505 2104 c-535 -56 -829 -143 -984 -288 -64 -61 -97 -122 -110
-205 -23 -144 34 -272 147 -330 106 -54 168 -66 337 -65 145 0 168 3 250 28
118 36 296 129 418 218 l97 72 0 293 c0 228 -3 293 -12 292 -7 -1 -71 -7 -143
-15z m3 -326 l-3 -183 -108 -72 c-195 -130 -356 -180 -547 -170 -122 6 -203
32 -259 82 -33 30 -35 38 -39 102 -3 56 0 78 17 110 55 108 246 203 513 254
105 20 357 56 406 58 l22 1 -2 -182z"/>
<path d="M6374 1918 c19 -149 87 -318 166 -413 118 -141 281 -236 484 -282
110 -25 375 -23 491 4 108 26 233 71 335 121 l75 37 1 120 c2 176 46 319 130
422 l35 43 -862 0 -862 0 7 -52z m1452 -126 c-22 -61 -38 -151 -45 -242 l-6
-84 -93 -38 c-126 -51 -191 -67 -319 -77 -295 -23 -501 38 -665 199 -60 60
-85 93 -117 160 -23 46 -41 92 -41 102 0 17 30 18 650 18 l649 0 -13 -38z"/>
</g>
</svg>
